:SAMPLES-PER-SECOND 30
:FULLY-SPECIFIED
:DEGREES
99
root  -35.159 39.2606 -28.7847 6.64249 -75.9559 -11.7063
RightUpLeg  -19.5414 -0.827402 -4.22767
RightLeg  47.1081 8.6732 9.5653
RightFoot  -7.09364 -0.606405 14.855
RightToes  0.00048216 0.542163 -0.142577
Spine  52.447 -2.84332 3.65263
Spine1  3.04337 0.0738143 -5.44841
HEad  -39.9808 44.2612 -44.7175
LeftShoulder1  10.2322 -16.4704 -44.6192
LeftArm  -17.857 3.6457 -23.6509
LeftForeArm  27.7442 -73.5618 -39.7003
LeftHand  -0.25398 0.0180481 5.50724
RightShoulder  5.3338 10.7119 31.5724
RightArm  -18.9434 -9.42846 27.4961
RightForeArm  21.4944 77.2869 70.9437
RightHand  0.441506 -18.078 -5.04004
LeftUpLeg  -21.8716 14.7484 -2.60589
LeftLeg  17.0006 -9.83566 -3.43914
LeftFoot  12.8187 -1.85328 8.2789
LeftToes  1.06246e-005 4.65856e-005 -8.18501e-006
100
root  -34.7479 39.0793 -29.1457 0.382131 -72.9325 -7.80481
RightUpLeg  -15.0105 1.84346 -3.85484
RightLeg  50.3431 12.1779 14.9257
RightFoot  -7.89479 -0.616482 18.6664
RightToes  0.00048216 0.542163 -0.142577
Spine  49.9737 -2.70337 3.64426
Spine1  2.92731 0.234793 -5.88995
HEad  -39.4167 48.0183 -45.9038
LeftShoulder1  10.2372 -15.8204 -46.2042
LeftArm  -17.5399 8.09159 -21.8521
LeftForeArm  34.0982 -75.4905 -46.8745
LeftHand  -0.25398 0.0180481 5.50724
RightShoulder  5.29223 10.5308 31.7626
RightArm  -17.4156 -12.2959 28.127
RightForeArm  25.3395 77.5551 75.3477
RightHand  0.484828 -18.7482 -5.18113
LeftUpLeg  -19.7901 12.0088 -2.76088
LeftLeg  16.3913 -9.95777 -3.72246
LeftFoot  13.9348 -1.79385 7.60358
LeftToes  1.06246e-005 4.65856e-005 -8.18501e-006
101
root  -34.2964 38.9013 -29.4906 -4.41007 -69.0596 -5.19967
RightUpLeg  -9.5962 2.15434 -2.96346
RightLeg  50.1157 13.684 16.5954
RightFoot  -9.4063 -0.375722 17.4175
RightToes  0.00048216 0.542163 -0.142577
Spine  47.2298 -2.67358 4.2118
Spine1  3.53805 0.410331 -6.00737
HEad  -38.008 50.694 -46.2467
LeftShoulder1  10.0385 -15.3303 -46.4956
LeftArm  -17.66 11.3822 -21.6452
LeftForeArm  41.2045 -76.8833 -54.1722
LeftHand  -0.25398 0.0180481 5.50724
RightShoulder  5.14894 10.2484 31.4924
RightArm  -15.7934 -14.4447 28.4166
RightForeArm  25.6346 77.5794 76.0283
RightHand  0.410979 -18.6355 -4.58803
LeftUpLeg  -17.8066 9.81617 -3.49152
LeftLeg  15.3476 -11.3713 -4.32757
LeftFoot  15.4675 -1.90053 7.54564
LeftToes  1.06246e-005 4.65856e-005 -8.18501e-006
102
root  -33.7932 38.7984 -29.7963 -6.63917 -64.0226 -4.92616
RightUpLeg  -3.68876 -0.818264 -1.66737
RightLeg  45.8982 12.5053 13.2502
RightFoot  -13.9508 0.0850364 9.46866
RightToes  0.00048216 0.542163 -0.142577
Spine  44.1994 -3.08833 6.13522
Spine1  4.4468 0.475665 -5.49371
HEad  -35.7654 52.2387 -45.8529
LeftShoulder1  9.69513 -14.9251 -45.8767
LeftArm  -17.9664 13.2891 -22.9473
LeftForeArm  49.7338 -77.9597 -61.9506
LeftHand  -0.25398 0.0180481 5.50724
RightShoulder  4.88802 9.82363 30.7213
RightArm  -14.0456 -16.2838 28.2781
RightForeArm  25.1466 77.5926 77.1948
RightHand  0.433249 -17.7924 -5.07229
LeftUpLeg  -15.6024 7.92392 -4.10394
LeftLeg  13.0258 -14.308 -5.10886
LeftFoot  18.0765 -1.91636 6.88715
LeftToes  1.06246e-005 4.65856e-005 -8.18501e-006
103
root  -33.1605 38.6992 -30.1155 -6.69918 -58.4328 -5.94499
RightUpLeg  0.477105 -5.70673 -0.290102
RightLeg  39.8686 8.62187 7.38753
RightFoot  -19.2788 -0.0545744 0.78176
RightToes  0.00048216 0.542163 -0.142577
Spine  40.63 -3.61697 9.10553
Spine1  5.5528 0.854282 -5.5615
HEad  -33.8147 52.6998 -45.324
LeftShoulder1  9.41844 -14.5777 -45.4091
LeftArm  -17.8385 13.4797 -24.3871
LeftForeArm  59.1431 -78.7481 -70.2692
LeftHand  -0.25398 0.0180481 5.50724
RightShoulder  4.64638 9.44977 29.9061
RightArm  -12.6822 -18.0133 27.5241
RightForeArm  26.1303 77.6774 81.2418
RightHand  0.567688 -16.6274 -6.82912
LeftUpLeg  -14.3772 5.35941 -4.02551
LeftLeg  9.85834 -16.8622 -5.68186
LeftFoot  20.9073 -0.608294 1.71176
LeftToes  1.06246e-005 4.65856e-005 -8.18501e-006
104
root  -32.3543 38.6315 -30.4298 -5.16133 -53.4356 -7.44553
RightUpLeg  1.33576 -10.1134 1.00658
RightLeg  35.4668 4.59871 3.21422
RightFoot  -21.3904 -0.38751 -2.87399
RightToes  0.00048216 0.542163 -0.142577
Spine  36.7744 -3.86847 12.8631
Spine1  6.81086 1.89136 -6.86204
HEad  -32.9062 52.4546 -45.1314
LeftShoulder1  9.31845 -14.383 -45.4157
LeftArm  -17.1985 12.4207 -25.3045
LeftForeArm  67.671 -79.2029 -77.8558
LeftHand  -0.25398 0.0180481 5.50724
RightShoulder  4.53673 9.26019 29.5732
RightArm  -12.1738 -19.3249 26.1927
RightForeArm  27.8696 77.7274 85.6961
RightHand  0.619209 -16.0274 -7.70249
LeftUpLeg  -14.3784 2.61587 -2.88925
LeftLeg  5.79594 -16.973 -5.89825
LeftFoot  21.633 2.60658 -9.33624
LeftToes  1.06246e-005 4.65856e-005 -8.18501e-006
105
root  -31.4539 38.6413 -30.7051 -3.7414 -49.0114 -8.35462
RightUpLeg  0.0479724 -13.3322 1.5566
RightLeg  33.8526 2.40278 1.46321
RightFoot  -20.7802 -0.3409 -2.40505
RightToes  0.00048216 0.542163 -0.142577
Spine  33.6383 -3.76072 16.216
Spine1  7.64399 3.07583 -8.47917
HEad  -32.8562 52.1063 -45.4794
LeftShoulder1  9.34502 -14.3539 -45.6268
LeftArm  -16.5904 11.2186 -25.9284
LeftForeArm  74.0211 -79.4091 -83.3788
LeftHand  -0.25398 0.0180481 5.50724
RightShoulder  4.48724 9.14393 29.5067
RightArm  -12.3989 -19.9966 25.0523
RightForeArm  28.6545 77.729 87.3757
RightHand  0.523293 -16.2143 -6.60961
LeftUpLeg  -14.6225 1.51523 -1.65934
LeftLeg  2.05206 -15.3567 -6.38699
LeftFoot  18.4802 5.57243 -21.2471
LeftToes  1.06246e-005 4.65856e-005 -8.18501e-006
106
root  -30.5476 38.7905 -30.9557 -3.68527 -44.1057 -7.97807
RightUpLeg  -1.02545 -16.523 0.708373
RightLeg  32.8033 1.31037 0.653765
RightFoot  -19.3256 -0.201394 -1.02202
RightToes  0.00048216 0.542163 -0.142577
Spine  31.9747 -3.61147 17.7884
Spine1  7.60197 3.59289 -9.26002
HEad  -33.2758 51.8319 -46.253
LeftShoulder1  9.41924 -14.371 -45.9563
LeftArm  -16.3029 10.5209 -26.3861
LeftForeArm  77.0028 -79.4801 -85.6732
LeftHand  -0.25398 0.0180481 5.50724
RightShoulder  4.42358 9.00909 29.3779
RightArm  -12.9907 -20.4135 24.7247
RightForeArm  29.2343 77.7379 87.6232
RightHand  0.409496 -16.1446 -5.45598
LeftUpLeg  -14.7628 2.64317 -1.79304
LeftLeg  1.24648 -14.101 -7.52497
LeftFoot  12.7764 5.72539 -26.6091
LeftToes  1.06246e-005 4.65856e-005 -8.18501e-006
107
root  -29.6688 39.1195 -31.1784 -4.34824 -38.4393 -6.84355
RightUpLeg  -0.827875 -20.3509 -1.10798
RightLeg  30.1575 0.302218 -0.056253
RightFoot  -17.1957 -0.138801 -0.451867
RightToes  0.00048216 0.542163 -0.142577
Spine  31.1895 -3.54599 17.7847
Spine1  6.90379 3.46979 -9.31438
HEad  -33.7762 51.387 -46.8556
LeftShoulder1  9.53947 -14.4073 -46.4633
LeftArm  -16.0907 10.2287 -26.5399
LeftForeArm  75.336 -79.4575 -83.7294
LeftHand  -0.25398 0.0180481 5.50724
RightShoulder  4.39614 8.91754 29.4185
RightArm  -13.842 -21.1581 24.9162
RightForeArm  31.4235 77.7474 89.7799
RightHand  0.441741 -15.298 -6.24338
LeftUpLeg  -15.1633 5.76652 -3.38486
LeftLeg  3.93605 -13.1302 -7.91794
LeftFoot  7.50035 4.04415 -24.236
LeftToes  1.06246e-005 4.65856e-005 -8.18501e-006
108
root  -28.827 39.5469 -31.3112 -4.56111 -32.9705 -5.76885
RightUpLeg  0.11717 -24.2328 -3.09358
RightLeg  26.0956 -0.618486 -0.641967
RightFoot  -14.2247 -0.0905451 0.33052
RightToes  0.00048216 0.542163 -0.142577
Spine  30.25 -3.28077 17.312
Spine1  6.0275 3.39373 -9.46054
HEad  -33.616 50.742 -46.45
LeftShoulder1  9.69823 -14.5202 -46.9534
LeftArm  -15.7432 10.2771 -26.3863
LeftForeArm  70.4423 -79.3189 -79.0241
LeftHand  -0.25398 0.0180481 5.50724
RightShoulder  4.44314 8.91397 29.8143
RightArm  -14.8243 -22.3219 25.0935
RightForeArm  35.0674 77.7148 93.758
RightHand  0.541132 -14.5501 -7.86158
LeftUpLeg  -16.1668 9.95333 -5.14334
LeftLeg  8.11952 -10.9569 -6.42778
LeftFoot  4.11803 2.49367 -18.4595
LeftToes  1.06246e-005 4.65856e-005 -8.18501e-006
109
root  -28.0115 39.9833 -31.3131 -4.23964 -28.2877 -4.72801
RightUpLeg  1.24677 -26.2417 -5.17446
RightLeg  21.6094 -2.6439 -0.782828
RightFoot  -11.1184 -0.0787695 1.82876
RightToes  0.00048216 0.542163 -0.142577
Spine  28.9247 -2.68571 16.5262
Spine1  5.12787 3.58101 -9.82142
HEad  -32.3045 50.128 -44.816
LeftShoulder1  9.79197 -14.6332 -47.1157
LeftArm  -15.4344 10.9787 -26.1185
LeftForeArm  66.6983 -79.1631 -75.6384
LeftHand  -0.25398 0.0180481 5.50724
RightShoulder  4.50606 8.94518 30.2373
RightArm  -15.4243 -23.5779 25.208
RightForeArm  38.6879 77.6454 97.2802
RightHand  0.593997 -14.5273 -8.53114
LeftUpLeg  -17.4595 13.3673 -5.8331
LeftLeg  11.5882 -7.92653 -4.0358
LeftFoot  2.01255 1.4733 -12.6518
LeftToes  1.06246e-005 4.65856e-005 -8.18501e-006
110
root  -27.2131 40.3426 -31.1855 -3.81295 -24.0577 -3.65866
RightUpLeg  2.53076 -22.132 -7.29251
RightLeg  17.3366 -10.1422 0.0457752
RightFoot  -8.51713 -0.131298 3.04672
RightToes  0.00048216 0.542163 -0.142577
Spine  27.5305 -1.98497 15.2217
Spine1  4.1577 3.71028 -9.95054
HEad  -30.3691 49.5857 -42.5756
LeftShoulder1  9.71321 -14.5974 -46.8217
LeftArm  -15.4175 12.4749 -25.9358
LeftForeArm  67.0326 -79.1773 -76.2665
LeftHand  -0.25398 0.0180481 5.50724
RightShoulder  4.53895 8.97164 30.4269
RightArm  -15.2169 -24.7348 25.3927
RightForeArm  42.0286 77.544 100.431
RightHand  0.627273 -14.6823 -8.80664
LeftUpLeg  -18.5043 15.3706 -5.17965
LeftLeg  14.4255 -5.91082 -2.10385
LeftFoot  -0.0254988 0.772073 -7.80068
LeftToes  1.06246e-005 4.65856e-005 -8.18501e-006
